<?xml version="1.0" standalone="no"?>
<!DOCTYPE svg PUBLIC "-//W3C//DTD SVG 20010904//EN"
 "http://www.w3.org/TR/2001/REC-SVG-20010904/DTD/svg10.dtd">
<svg version="1.0" xmlns="http://www.w3.org/2000/svg"
 width="70.000000pt" height="70.000000pt" viewBox="0 0 70.000000 70.000000"
 preserveAspectRatio="xMidYMid meet">
<metadata>
Created by potrace 1.14, written by Peter Selinger 2001-2017
</metadata>
<g transform="translate(0.000000,70.000000) scale(0.100000,-0.100000)"
fill="#000000" stroke="none">
<path d="M324 638 c-3 -4 -13 -5 -24 -3 -11 2 -20 -1 -20 -6 0 -6 -4 -8 -9 -4
-17 10 -137 -66 -124 -79 3 -3 -1 -6 -11 -6 -9 0 -15 -4 -12 -9 3 -5 -1 -15
-10 -22 -24 -19 -38 -56 -49 -124 -3 -22 -8 -45 -10 -52 -2 -7 0 -15 6 -18 5
-4 7 -11 4 -16 -4 -5 0 -9 7 -9 9 0 9 -3 -2 -10 -11 -7 -11 -10 -2 -10 7 0 10
-4 7 -10 -3 -5 1 -20 10 -33 8 -13 12 -27 8 -30 -3 -4 -1 -7 5 -7 7 0 12 -5
12 -10 0 -13 68 -80 81 -80 6 0 7 -4 4 -10 -3 -6 1 -7 9 -4 9 3 16 1 16 -5 0
-6 8 -11 18 -11 10 0 22 -3 26 -7 14 -14 136 -25 136 -11 0 4 5 8 11 8 5 0 7
-5 3 -11 -3 -6 5 -4 18 5 14 9 28 13 31 9 4 -3 7 -1 7 6 0 8 6 11 16 7 8 -3
12 -2 9 4 -6 9 8 14 28 11 4 0 7 4 7 10 0 16 53 64 65 60 5 -1 7 1 3 5 -4 4
-3 13 4 21 6 7 8 16 5 19 -3 4 0 13 8 21 8 8 15 24 15 37 0 12 6 28 13 35 10
11 9 12 -2 6 -10 -6 -12 -4 -6 6 13 19 14 72 3 86 -5 7 -7 17 -3 23 3 5 1 10
-6 10 -7 0 -9 3 -6 6 3 4 1 16 -5 28 -7 11 -11 24 -10 29 1 4 -3 7 -8 7 -6 0
-10 5 -10 10 0 6 -16 26 -35 46 -19 19 -35 32 -35 29 0 -4 -7 1 -16 9 -8 9
-22 16 -30 16 -8 0 -14 5 -14 11 0 6 -7 9 -15 6 -8 -4 -17 -2 -20 3 -3 5 -12
7 -20 3 -8 -3 -15 -1 -15 3 0 11 -60 12 -66 2z"/>
</g>
</svg>
